<?xml version="1.0" encoding="UTF-8"?><svg id="Layer_2" xmlns="http://www.w3.org/2000/svg" viewBox="0 0 88.86 223.53"><defs><style>.cls-1{fill:#231f20;}</style></defs><g id="Layer_1-2"><path class="cls-1" d="M54.09,216.26c1.14-3.38,2.28-6.76,3.43-10.14l8.26-24.45c3.32-9.81,6.63-19.62,9.95-29.43,2.86-8.46,5.72-16.93,8.58-25.39,1.38-4.07,2.86-8.13,4.14-12.23,.82-2.64,.31-4.69-.47-7.01l-2.14-6.33c-2.6-7.68-5.19-15.36-7.79-23.04l-9.9-29.29c-2.98-8.81-5.96-17.62-8.94-26.44-1.63-4.82-3.26-9.65-4.89-14.47l-.23-.68c-.84-2.47-2.3-4.63-4.6-5.98-2.14-1.25-5.3-1.79-7.71-1.01s-4.75,2.28-5.98,4.6-1.87,5.16-1.01,7.71c1.14,3.38,2.28,6.76,3.43,10.14,2.74,8.11,5.48,16.23,8.23,24.34,3.32,9.81,6.63,19.62,9.95,29.43,2.86,8.45,5.71,16.89,8.57,25.34,1.39,4.12,2.68,8.3,4.18,12.37,.02,.06,.04,.12,.06,.17v-5.32c-1.14,3.38-2.28,6.76-3.43,10.14-2.74,8.11-5.48,16.23-8.23,24.34-3.32,9.81-6.63,19.62-9.95,29.43l-8.57,25.34c-1.39,4.12-2.89,8.22-4.18,12.37-.02,.06-.04,.12-.06,.17-.8,2.37-.23,5.59,1.01,7.71s3.59,4.05,5.98,4.6c5.54,1.26,10.51-1.67,12.3-6.98h0Z"/><path class="cls-1" d="M19.68,216.26c1.14-3.38,2.28-6.76,3.43-10.14l8.26-24.45c3.32-9.81,6.63-19.62,9.95-29.43,2.86-8.46,5.72-16.93,8.58-25.39,1.38-4.07,2.86-8.13,4.14-12.23,.82-2.64,.31-4.69-.47-7.01l-2.14-6.33c-2.6-7.68-5.19-15.36-7.79-23.04l-9.9-29.29c-2.98-8.81-5.96-17.62-8.94-26.44l-4.89-14.47-.23-.68c-.84-2.47-2.3-4.63-4.6-5.98C12.94,.12,9.78-.41,7.38,.36S2.62,2.65,1.4,4.96-.47,10.11,.39,12.66c1.14,3.38,2.28,6.76,3.43,10.14,2.74,8.11,5.48,16.23,8.23,24.34l9.95,29.43,8.57,25.34c1.39,4.12,2.68,8.3,4.18,12.37,.02,.06,.04,.12,.06,.17v-5.32c-1.14,3.38-2.28,6.76-3.43,10.14-2.74,8.11-5.48,16.23-8.23,24.34-3.32,9.81-6.63,19.62-9.95,29.43-2.86,8.45-5.71,16.89-8.57,25.34-1.39,4.12-2.89,8.22-4.18,12.37-.02,.06-.04,.12-.06,.17-.8,2.37-.23,5.59,1.01,7.71s3.59,4.05,5.98,4.6c5.54,1.26,10.51-1.67,12.3-6.98h0Z"/></g></svg>